<svg width="86" height="52" viewBox="0 0 86 52" fill="none" xmlns="http://www.w3.org/2000/svg">
<path d="M4.85652 22.3665L2.02809 25.1949L4.85652 28.0233L7.68495 25.1949L4.85652 22.3665Z" fill="black"/>
<path d="M14 25.86L16.17 28L19 25.19L16.11 22.3C15.5492 21.7503 14.7953 21.4424 14.01 21.4424C13.2247 21.4424 12.4708 21.7503 11.91 22.3L2 32.19L4.85 35L14 25.86Z" fill="black"/>
<path d="M13.34 37.85L10.51 35L8.35999 37.15L6.2 35L3.37 37.83L6.24999 40.71C6.81078 41.2597 7.56474 41.5676 8.34999 41.5676C9.13525 41.5676 9.88921 41.2597 10.45 40.71L13.34 37.85Z" fill="black"/>
<path d="M14 42.83L11.85 40.68L9 43.5L11.88 46.38C12.4408 46.9297 13.1947 47.2376 13.98 47.2376C14.7653 47.2376 15.5192 46.9297 16.08 46.38L19 43.5L16.17 40.67L14 42.83Z" fill="black"/>
<path d="M19.67 37.17L17.51 35L14.68 37.83L17.56 40.71C18.1208 41.2597 18.8747 41.5676 19.66 41.5676C20.4453 41.5676 21.1992 41.2597 21.76 40.71L24.64 37.83L21.82 35L19.67 37.17Z" fill="black"/>
<path d="M23.1705 29.362L20.342 32.1904L23.1705 35.0189L25.9989 32.1904L23.1705 29.362Z" fill="black"/>
<path d="M14 31.52L11.85 29.37L9 32.19L11.88 35.07C12.4408 35.6197 13.1947 35.9276 13.98 35.9276C14.7653 35.9276 15.5192 35.6197 16.08 35.07L26 25.19L23.17 22.36L14 31.52Z" fill="black"/>
<path d="M14.0025 3.31522L10.233 7.08344L14.0012 10.853L17.7707 7.08475L14.0025 3.31522Z" fill="black"/>
<path d="M9.30999 15.67H12V21C12.606 20.6429 13.2966 20.4546 14 20.4546C14.7034 20.4546 15.394 20.6429 16 21V15.67H18.71L20.48 17.44L24.25 13.67L20.49 9.89999L18.72 11.68H9.30999L7.52999 9.89999L3.75999 13.67L7.52999 17.44L9.30999 15.67Z" fill="black"/>
<path d="M42.8406 7.1597H40.0516V13.8897H39.9556L35.4051 7.1597H33V18.8403H35.7947V12.0989H35.868L40.4693 18.8403H42.8406V7.1597Z" fill="black"/>
<path d="M62.5064 13C62.5064 9.13878 60.09 7 56.9848 7C53.8684 7 51.4689 9.13878 51.4689 13C51.4689 16.8441 53.8684 19 56.9848 19C60.09 19 62.5064 16.8612 62.5064 13ZM59.6496 13C59.6496 15.2871 58.656 16.5247 56.9848 16.5247C55.3193 16.5247 54.32 15.2871 54.32 13C54.32 10.7129 55.3193 9.47529 56.9848 9.47529C58.656 9.47529 59.6496 10.7129 59.6496 13Z" fill="black"/>
<path d="M70.2272 9.45247H73.7388V18.8403H76.494V9.45247H80V7.1597H70.2272V9.45247Z" fill="black"/>
<path d="M65 24L51 24L51 28.055L55.6285 28.055L55.6285 45L60.3588 45L60.3588 28.055L65 28.055L65 24Z" fill="black"/>
<path d="M47 38.355L47 24L42.5103 24L42.5103 38.2945C42.5447 38.6459 42.5054 39.0006 42.3949 39.3358C42.2844 39.671 42.1052 39.9793 41.8687 40.2408C41.6323 40.5024 41.3438 40.7114 41.022 40.8544C40.7002 40.9975 40.352 41.0714 40 41.0714C39.648 41.0714 39.2998 40.9975 38.978 40.8544C38.6562 40.7114 38.3677 40.5024 38.1313 40.2408C37.8948 39.9793 37.7156 39.671 37.6051 39.3358C37.4946 39.0006 37.4553 38.6459 37.4897 38.2945L37.4897 24L33 24L33 38.355C33 42.4461 35.8241 45 40 45C44.1759 45 47 42.4461 47 38.355" fill="black"/>
<path d="M81 38.585C81 34.8498 78.5673 33.5573 75.9401 32.6561L73.3371 31.6482C72.8699 31.5413 72.452 31.2868 72.1484 30.9244C71.8449 30.562 71.6727 30.1119 71.6586 29.6443C71.6597 29.3654 71.7216 29.09 71.8402 28.8362C71.9588 28.5825 72.1313 28.3561 72.3463 28.1723C72.5614 27.9884 72.8141 27.8512 73.0876 27.7697C73.3612 27.6882 73.6494 27.6643 73.9331 27.6996C74.2591 27.6746 74.5867 27.7188 74.8935 27.8292C75.2003 27.9395 75.4789 28.1134 75.7101 28.3388C75.9413 28.5642 76.1196 28.8358 76.2328 29.1349C76.346 29.4339 76.3914 29.7534 76.3658 30.0711L76.3658 30.6285L80.55 30.6285L80.55 30.166C80.55 26.3715 77.8983 24 73.9331 24C69.7854 24 67.3892 26.834 67.3892 29.9289C67.3892 33.0237 68.9705 34.6719 71.9748 35.7628L74.8818 36.8419C76.1833 37.3399 76.682 38.0277 76.682 39.0356C76.682 40.4585 75.7333 41.2885 74.0182 41.2885C72.3032 41.2885 71.2693 40.5178 71.2693 38.917L71.2693 38.1818L67 38.1818L67 38.8933C67 42.664 69.98 45 74.0304 45C78.4579 45 81 42.3794 81 38.6443" fill="black"/>
</svg>
